<svg xmlns="http://www.w3.org/2000/svg" width="11.801" height="13" viewBox="0 0 11.801 13"><defs><style>.a{fill:#2b2b2b;}</style></defs><g transform="translate(-175.861 -423.167)"><path class="a" d="M187.162,426.566h-10.8a.5.5,0,0,1,0-1h10.8a.5.5,0,0,1,0,1Z"/><path class="a" d="M184.762,436.167h-6a1.7,1.7,0,0,1-1.7-1.7v-8.4a.5.5,0,0,1,1,0v8.4a.7.7,0,0,0,.7.7h6a.7.7,0,0,0,.7-.7v-8.4a.5.5,0,0,1,1,0v8.4A1.7,1.7,0,0,1,184.762,436.167Zm-.6-9.6a.5.5,0,0,1-.5-.5v-1.2a.7.7,0,0,0-.7-.7h-2.4a.7.7,0,0,0-.7.7v1.2a.5.5,0,0,1-1,0v-1.2a1.7,1.7,0,0,1,1.7-1.7h2.4a1.7,1.7,0,0,1,1.7,1.7v1.2A.5.5,0,0,1,184.162,426.566Z"/></g></svg>