<svg xmlns="http://www.w3.org/2000/svg" width="13.499" height="13.481" viewBox="0 0 13.499 13.481"><defs><style>.a{fill:#000080;}</style></defs><g transform="translate(-38.698 -301.269)"><path d="M48.99,314.75H40.64a1.945,1.945,0,0,1-1.942-1.943v-8.349a1.945,1.945,0,0,1,1.942-1.943h4.175a.75.75,0,1,1,0,1.5H40.64a.443.443,0,0,0-.442.443v8.349a.443.443,0,0,0,.442.443h8.35a.444.444,0,0,0,.443-.443v-4.175a.75.75,0,0,1,1.5,0v4.175A1.946,1.946,0,0,1,48.99,314.75Z"/><path d="M43.026,311.172a.751.751,0,0,1-.728-.932l.6-2.386a.739.739,0,0,1,.2-.348l5.666-5.666a2.062,2.062,0,0,1,2.849,0,2.017,2.017,0,0,1,0,2.85l-5.666,5.665a.742.742,0,0,1-.348.2l-2.385.6A.714.714,0,0,1,43.026,311.172Zm1.273-2.753-.242.972.971-.243,5.519-5.519a.515.515,0,0,0,0-.728.528.528,0,0,0-.728,0h0Zm4.989-6.048h0Z"/></g></svg>